<svg xmlns="http://www.w3.org/2000/svg" xmlns:xlink="http://www.w3.org/1999/xlink" width="272" height="272" viewBox="0 0 272 272"><defs><path id="a" d="M144.362 106.324l26.4 27.295a22.732 22.732 0 0 0-1.839 8.99c0 12.595 10.21 22.805 22.806 22.805s22.807-10.21 22.807-22.806c0-12.595-10.211-22.806-22.807-22.806-2.969 0-5.806.567-8.408 1.6l-27.346-28.203a22.711 22.711 0 0 0 2.422-10.238c0-12.596-10.21-22.806-22.806-22.806a22.72 22.72 0 0 0-9.605 2.115l-33.68-34.735 8.839-8.84c11.977-11.977 17.568-15.073 24.289-17.11 6.72-2.037 13.593-2.037 20.314 0 6.72 2.037 12.311 5.133 24.289 17.11l82.449 82.45c11.977 11.977 15.073 17.568 17.11 24.289 2.038 6.72 2.038 13.593 0 20.314-2.037 6.72-5.133 12.311-17.11 24.289l-82.45 82.449c-11.977 11.977-17.567 15.073-24.288 17.11-6.72 2.038-13.594 2.038-20.314 0-6.721-2.037-12.312-5.133-24.29-17.11l-82.448-82.45C6.718 158.06 3.622 152.47 1.585 145.749c-2.037-6.72-2.037-13.594 0-20.314 2.037-6.721 5.133-12.312 17.11-24.29L80.03 39.812l34.142 35.3a22.762 22.762 0 0 0-1.388 7.85c0 9.487 5.793 17.621 14.035 21.058v70.16c-8.242 3.438-14.035 11.572-14.035 21.059 0 12.596 10.211 22.806 22.807 22.806 12.595 0 22.806-10.21 22.806-22.806 0-9.487-5.793-17.621-14.035-21.058v-67.856z"/><linearGradient id="b" x1="50%" x2="50%" y1="98.012%" y2="5.507%"><stop offset="0%" stop-color="#EC7739"/><stop offset="100%" stop-color="#F8A477"/></linearGradient></defs><g fill="none" fill-rule="evenodd"><mask id="c" fill="#fff"><use xlink:href="#a"/></mask><use fill="#EC7739" xlink:href="#a"/><g fill="url(#b)" mask="url(#c)"><path d="M-14-14h300v300H-14z"/></g></g></svg>