<svg xmlns="http://www.w3.org/2000/svg" width="38" height="40"><g fill="none" fill-rule="evenodd"><path fill="#3AC" d="M18.604 39.97c-.213 0-.421-.055-.61-.157L3.073 31.53a1.28 1.28 0 0 1-.645-.985L.007 7.496a1.275 1.275 0 0 1 .84-1.341L17.999.073a1.25 1.25 0 0 1 .83 0L36.355 6.15c.562.2.91.767.84 1.364l-2.783 23.052a1.279 1.279 0 0 1-.633.959l-14.553 8.281a1.256 1.256 0 0 1-.621.164h-.001z"/><path fill="#FFF" d="M26.021 16.96c.34-1.417.299-2.75-.468-4.61 0 0 1.234.482 1.106-.476-.129-.959-1.487-1.97-2.509-2.608-.45-.281-1.667-.884-3.298-1.25l.305-.694-.084-.042c-2.53-1.243-5.455-.115-5.485-.104l-.09.035.29.773c-.856.2-1.68.509-2.456.923-6.875 3.691-3.388 10.9-1.258 12.616 2.13 1.715 1.149 5.21 0 8.379h9.234c.129-.593.017.29.448-2.073.43-2.365 2.088-1.487 3.396-1.564 1.307-.077 1.1-.998 1.084-2.027.638-.29.638-.596.212-.966.553-.521.468-.521.17-1.02-.296-.5-.085-.74-.085-.74s.892-.175 1.02-.651c.041-1.027-1.873-2.487-1.533-3.9l.001-.002z"/><path fill="#3AC" d="M24.112 16.662l-1.367-.47c-.072.19-.774 1.943-1.679 2.25l-.862-1.151c-.415.327-1.362.615-1.817.482v-.043h-.024l.027 3.175c-1.816.188-3.985-.92-5.022-2.446l-1.135.868c-1.29-1.572-1.487-3.468-1.5-4.56h1.52c0-1.207.468-2.78 1.125-3.648l1.192.851c.099-.122.998-1.21 2.203-1.6h.018l-.86-2.3c1.819-.527 3.154-.52 4.609.027.044.014.09.035.129.061l.022.018-.257.685c.068.03 1.033.467 1.432.878l.322-.448a5.522 5.522 0 0 1 2.454 3.3l-.493.178v-.014a7.277 7.277 0 0 1-.036 3.908v-.001z"/><path fill="#FFF" d="M18.3 12.468c-.616 0-1.171.373-1.408.946a1.548 1.548 0 0 0 .33 1.672c.435.437 1.088.57 1.656.332.568-.236.94-.796.94-1.418 0-.845-.682-1.53-1.52-1.532h.001z"/></g></svg>