<svg xmlns="http://www.w3.org/2000/svg" viewBox="0 0 300 300"><path fill="#FFF" d="M216.612 156.207c.281-7.293-13.397-17.674-10.942-27.703 2.455-10.031 2.104-19.5-3.366-32.685 0 0 8.837 3.438 7.925-3.366-.912-6.803-10.661-13.957-17.955-18.516-3.297-2.034-12.274-6.452-24.338-9.047l-2.244 6.172c.491.21 7.364 3.297 10.239 6.242l2.315-3.156s13.466 7.295 17.604 23.426l-3.577 1.192v-.071c.28.983 4.068 13.678-.211 27.704l-9.819-3.296c-.491 1.333-5.471 13.748-12.063 15.921l-6.172-8.135c-2.946 2.315-9.75 4.349-12.976 3.437v-.28h-.14l.21 22.513c-12.975 1.333-28.475-6.522-35.91-17.324l-8.136 6.172c-9.258-11.152-10.661-24.62-10.731-32.334h10.941c0-8.556 3.367-19.709 8.066-25.88l8.557 6.032c.701-.841 7.154-8.557 15.78-11.363.07 0 .07 0 .14-.069l-6.453-17.113a72.602 72.602 0 0 0-18.305 6.732c-49.166 26.161-24.198 77.291-8.978 89.496 15.219 12.203 8.205 36.961 0 59.405h66.069c.912-4.21.14 2.104 3.226-14.729 3.086-16.763 14.939-10.521 24.268-11.082 9.328-.561 7.855-7.084 7.785-14.378 4.558-2.034 4.558-4.208 1.542-6.874 3.928-3.646 3.367-3.646 1.193-7.223-2.105-3.578-.631-5.261-.631-5.261s6.176-1.192 7.087-4.559z"/><path fill="none" stroke="#FFF" stroke-width="13" stroke-miterlimit="10" d="M150.683 13.899L25.068 58.087l17.745 167.906 109.272 60.108 106.469-60.108 20.55-167.906z"/><path fill="#FFF" stroke="#FFF" stroke-width="2" stroke-miterlimit="10" d="M133.149 64.82c12.835-3.718 22.584-3.857 33.455.209a3.75 3.75 0 0 1 1.052.561l2.245-5.049c-18.025-8.767-38.716-.703-38.716-.703l1.964 4.982"/><circle fill="#FFF" stroke="#FFF" stroke-width="2" stroke-miterlimit="10" cx="150.403" cy="107.532" r="10.17"/></svg>