<svg xmlns="http://www.w3.org/2000/svg" viewBox="0 0 179.33 179.33"><defs><style>.cls-1{fill:#afdbe2}.cls-2{fill:url(#Dégradé_sans_nom_14)}</style><linearGradient id="Dégradé_sans_nom_14" x1="89.67" y1="30.75" x2="89.67" y2="152.58" gradientUnits="userSpaceOnUse"><stop offset="0" stop-color="#26a9ce" stop-opacity=".9"/><stop offset=".13" stop-color="#2dabcf" stop-opacity=".9"/><stop offset=".3" stop-color="#3fb2d2" stop-opacity=".9"/><stop offset=".5" stop-color="#5ebdd6" stop-opacity=".9"/><stop offset=".71" stop-color="#89cddc" stop-opacity=".9"/><stop offset=".87" stop-color="#afdbe2" stop-opacity=".9"/></linearGradient></defs><title>Fichier 1</title><g id="Calque_2" data-name="Calque 2"><g id="Calque_1-2" data-name="Calque 1"><rect class="cls-1" width="179.33" height="179.33" rx="4" ry="4"/><path class="cls-2" d="M55.32 81.86h.34a42.23 42.23 0 0 0 10.91 23.91C56.22 111.3 48.09 124.89 43.88 136a71.35 71.35 0 0 0 91.57 0c-4.21-11.06-12.34-24.65-22.68-30.2a42.23 42.23 0 0 0 10.91-23.91h.34a8.86 8.86 0 0 0 1.73-17.56c-1.66-18.81-17.17-33.55-36.08-33.55S56 45.5 53.71 64.29a8.86 8.86 0 0 0 1.61 17.58z"/></g></g></svg>