<svg xmlns="http://www.w3.org/2000/svg" xmlns:xlink="http://www.w3.org/1999/xlink" width="260" height="260" viewBox="0 0 260 260"><defs><path id="a" d="M128.527.002c-10.727.05-20.972.956-29.985 2.535-26.554 4.646-31.375 14.37-31.375 32.304v23.684h62.75v7.895h-86.3c-18.236 0-34.205 10.856-39.2 31.507-5.761 23.671-6.017 38.442 0 63.159 4.46 18.398 15.113 31.507 33.35 31.507H59.34V164.2c0-20.512 17.92-38.605 39.2-38.605h62.677c17.447 0 31.375-14.227 31.375-31.58V34.842c0-16.842-14.346-29.493-31.375-32.304C150.438.76 139.254-.047 128.527.002zm-33.935 19.05c6.482 0 11.775 5.327 11.775 11.878 0 6.527-5.293 11.806-11.775 11.806-6.505 0-11.774-5.279-11.774-11.806 0-6.551 5.27-11.879 11.774-11.879zm105.796 48.355v27.386c0 21.232-18.278 39.102-39.12 39.102h-62.55c-17.133 0-31.31 14.441-31.31 31.339v58.725c0 16.713 14.757 26.544 31.31 31.339 19.823 5.74 38.832 6.777 62.55 0 15.765-4.496 31.31-13.542 31.31-31.34v-23.503H130.03v-7.835h93.86c18.2 0 24.982-12.502 31.311-31.267 6.538-19.319 6.26-37.897 0-62.678-4.497-17.843-13.088-31.268-31.31-31.268h-23.502zm-35.18 148.717c6.492 0 11.751 5.238 11.751 11.716 0 6.501-5.259 11.788-11.75 11.788-6.469 0-11.751-5.287-11.751-11.788 0-6.478 5.282-11.716 11.75-11.716z"/><linearGradient id="b" x1="50%" x2="50%" y1="3.249%" y2="96.774%"><stop offset="1.539%" stop-color="#82DA9E"/><stop offset="100%" stop-color="#48AE76"/></linearGradient></defs><g fill="none" fill-rule="evenodd"><mask id="c" fill="#fff"><use xlink:href="#a"/></mask><use fill="#FFF" fill-rule="nonzero" xlink:href="#a"/><g fill="url(#b)" mask="url(#c)"><path d="M-113.75-113.75h496v496h-496z"/></g></g></svg>