<svg xmlns="http://www.w3.org/2000/svg" xmlns:xlink="http://www.w3.org/1999/xlink" width="240" height="235" viewBox="0 0 240 235"><defs><path id="a" d="M120.007 185.442a464.947 464.947 0 0 0 88.725-7.517A103.443 103.443 0 0 0 240 167.572v42.044C240 223.64 186.278 235 120.007 235 53.736 235 .017 223.641.017 209.616v-42.044a103.418 103.418 0 0 0 31.267 10.353 464.92 464.92 0 0 0 88.723 7.517zm0-66.267a464.695 464.695 0 0 0 88.642-7.434 103.402 103.402 0 0 0 31.265-10.353v40.456h-.672c0 7.099-41.883 20.96-119.235 20.96-77.35 0-119.32-13.821-119.32-20.877h-.67v-40.539a103.428 103.428 0 0 0 31.267 10.27 464.92 464.92 0 0 0 88.723 7.517zm119.95-93.79c.003.251-.01.5-.043.75.021.28.021.556 0 .835v45.925h-.672c0 7.096-41.883 20.958-119.235 20.958-77.35 0-119.32-13.819-119.32-20.874h-.67V27.053a5.35 5.35 0 0 1 0-.832 5.42 5.42 0 0 1 0-.837C.016 11.356 53.778 0 120.006 0c66.23 0 119.95 11.356 119.95 25.384z"/><linearGradient id="b" x1="50%" x2="50%" y1="0%" y2="100%"><stop offset="0%" stop-color="#B8BCF9"/><stop offset="100%" stop-color="#988DE6"/></linearGradient></defs><g fill="none" fill-rule="evenodd"><mask id="c" fill="#fff"><use xlink:href="#a"/></mask><use fill="#FFF" xlink:href="#a"/><g fill="url(#b)" mask="url(#c)"><path d="M-125-120h490v485h-490z"/></g></g></svg>